<svg baseProfile="basic" xmlns="http://www.w3.org/2000/svg" viewBox="0 0 585.333 75.5"><path fill="none" d="M0 0h585.333v75.5H0z"/><linearGradient id="a" gradientUnits="userSpaceOnUse" x1="114.334" y1="14.663" x2="114.334" y2="65.033"><stop offset="0" stop-color="#010101"/><stop offset=".023" stop-color="#0a0b0b"/><stop offset=".156" stop-color="#2a2b2b"/><stop offset=".257" stop-color="#3a3b3b"/><stop offset=".314" stop-color="#404041"/><stop offset="1" stop-color="#010101"/></linearGradient><path fill="url(#a)" d="M92.58 15.686c4.088-.657 9.417-1.022 15.038-1.022 9.344 0 15.402 1.679 20.147 5.256 5.11 3.796 8.322 9.855 8.322 18.542 0 9.416-3.431 15.913-8.176 19.928-5.183 4.308-13.067 6.352-22.703 6.352-5.767 0-9.854-.365-12.628-.73V15.686zm11.169 40.148c.949.219 2.482.219 3.869.219 10.074.073 16.644-5.475 16.644-17.227.073-10.22-5.913-15.622-15.476-15.622-2.482 0-4.088.219-5.037.438v32.192z"/><linearGradient id="b" gradientUnits="userSpaceOnUse" x1="158.366" y1="14.663" x2="158.366" y2="65.033"><stop offset="0" stop-color="#010101"/><stop offset=".023" stop-color="#0a0b0b"/><stop offset=".156" stop-color="#2a2b2b"/><stop offset=".257" stop-color="#3a3b3b"/><stop offset=".314" stop-color="#404041"/><stop offset="1" stop-color="#010101"/></linearGradient><path fill="url(#b)" d="M152.174 53.676l-2.928 10.553h-9.639l12.567-41.117h12.201l12.75 41.117H167.12l-3.172-10.553h-11.774zm10.432-6.955l-2.562-8.724c-.732-2.44-1.464-5.49-2.074-7.931h-.122c-.61 2.44-1.22 5.551-1.891 7.931l-2.44 8.724h9.089z"/><linearGradient id="c" gradientUnits="userSpaceOnUse" x1="191.246" y1="14.663" x2="191.246" y2="65.033"><stop offset="0" stop-color="#010101"/><stop offset=".023" stop-color="#0a0b0b"/><stop offset=".156" stop-color="#2a2b2b"/><stop offset=".257" stop-color="#3a3b3b"/><stop offset=".314" stop-color="#404041"/><stop offset="1" stop-color="#010101"/></linearGradient><path fill="url(#c)" d="M186.335 64.229V47.392l-12.994-24.28h10.615l4.209 9.883c1.281 2.989 2.135 5.186 3.172 7.87h.122c.915-2.562 1.891-4.941 3.111-7.87l4.148-9.883h10.432l-13.543 23.975v17.142h-9.272z"/><linearGradient id="d" gradientUnits="userSpaceOnUse" x1="224.369" y1="14.663" x2="224.369" y2="65.033"><stop offset="0" stop-color="#010101"/><stop offset=".023" stop-color="#0a0b0b"/><stop offset=".156" stop-color="#2a2b2b"/><stop offset=".257" stop-color="#3a3b3b"/><stop offset=".314" stop-color="#404041"/><stop offset="1" stop-color="#010101"/></linearGradient><path fill="url(#d)" d="M212.138 54.651c2.501 1.281 6.344 2.562 10.31 2.562 4.271 0 6.527-1.769 6.527-4.453 0-2.563-1.952-4.025-6.894-5.795-6.833-2.379-11.286-6.162-11.286-12.14 0-7.016 5.856-12.384 15.556-12.384 4.636 0 8.053.976 10.493 2.074l-2.074 7.503c-1.647-.793-4.575-1.952-8.602-1.952s-5.979 1.83-5.979 3.965c0 2.623 2.318 3.782 7.626 5.795 7.259 2.684 10.676 6.466 10.676 12.262 0 6.894-5.308 12.75-16.593 12.75-4.698 0-9.334-1.22-11.652-2.501l1.892-7.686z"/><linearGradient id="e" gradientUnits="userSpaceOnUse" x1="261.761" y1="14.663" x2="261.761" y2="65.033"><stop offset="0" stop-color="#010101"/><stop offset=".023" stop-color="#0a0b0b"/><stop offset=".156" stop-color="#2a2b2b"/><stop offset=".257" stop-color="#3a3b3b"/><stop offset=".314" stop-color="#404041"/><stop offset="1" stop-color="#010101"/></linearGradient><path fill="url(#e)" d="M266.427 23.112v41.117h-9.333V23.112h9.333z"/><linearGradient id="f" gradientUnits="userSpaceOnUse" x1="291.498" y1="14.663" x2="291.498" y2="65.033"><stop offset="0" stop-color="#010101"/><stop offset=".023" stop-color="#0a0b0b"/><stop offset=".156" stop-color="#2a2b2b"/><stop offset=".257" stop-color="#3a3b3b"/><stop offset=".314" stop-color="#404041"/><stop offset="1" stop-color="#010101"/></linearGradient><path fill="url(#f)" d="M274.478 64.229V23.112h10.859l8.541 15.068c2.44 4.331 4.88 9.456 6.71 14.091h.184c-.609-5.429-.793-10.98-.793-17.142V23.112h8.541v41.117h-9.762l-8.784-15.861c-2.44-4.392-5.125-9.699-7.138-14.519l-.183.061c.244 5.429.366 11.225.366 17.936v12.383h-8.541z"/><linearGradient id="g" gradientUnits="userSpaceOnUse" x1="349.517" y1="14.663" x2="349.517" y2="65.033"><stop offset="0" stop-color="#010101"/><stop offset=".023" stop-color="#0a0b0b"/><stop offset=".156" stop-color="#2a2b2b"/><stop offset=".257" stop-color="#3a3b3b"/><stop offset=".314" stop-color="#404041"/><stop offset="1" stop-color="#010101"/></linearGradient><path fill="url(#g)" d="M340.574 15.028v28.323c0 8.468 3.213 12.774 8.906 12.774 5.84 0 9.052-4.088 9.052-12.774V15.028h11.096v27.593c0 15.183-7.665 22.411-20.513 22.411-12.409 0-19.709-6.862-19.709-22.557V15.028h11.168z"/><linearGradient id="h" gradientUnits="userSpaceOnUse" x1="395.31" y1="14.663" x2="395.31" y2="65.033"><stop offset="0" stop-color="#010101"/><stop offset=".023" stop-color="#0a0b0b"/><stop offset=".156" stop-color="#2a2b2b"/><stop offset=".257" stop-color="#3a3b3b"/><stop offset=".314" stop-color="#404041"/><stop offset="1" stop-color="#010101"/></linearGradient><path fill="url(#h)" d="M378.472 23.112h9.212v18.179h.183c.915-1.586 1.892-3.05 2.807-4.514l9.333-13.665h11.408L397.811 40.62l14.336 23.608h-10.859l-10.065-17.752-3.538 4.332v13.42h-9.212V23.112z"/><linearGradient id="i" gradientUnits="userSpaceOnUse" x1="431.453" y1="14.663" x2="431.453" y2="65.033"><stop offset="0" stop-color="#010101"/><stop offset=".023" stop-color="#0a0b0b"/><stop offset=".156" stop-color="#2a2b2b"/><stop offset=".257" stop-color="#3a3b3b"/><stop offset=".314" stop-color="#404041"/><stop offset="1" stop-color="#010101"/></linearGradient><path fill="url(#i)" d="M415.926 23.661c2.989-.488 7.442-.854 12.384-.854 6.101 0 10.371.915 13.299 3.233 2.44 1.952 3.782 4.819 3.782 8.602 0 5.247-3.721 8.846-7.259 10.127v.183c2.867 1.16 4.453 3.904 5.49 7.688 1.281 4.636 2.562 10.004 3.355 11.59h-9.518c-.671-1.158-1.646-4.514-2.867-9.577-1.098-5.124-2.867-6.527-6.649-6.589h-2.806V64.23h-9.212V23.661zm9.212 17.691h3.66c4.636 0 7.382-2.318 7.382-5.917 0-3.782-2.563-5.673-6.833-5.734-2.257 0-3.538.183-4.209.305v11.346z"/><linearGradient id="j" gradientUnits="userSpaceOnUse" x1="468.416" y1="14.663" x2="468.416" y2="65.033"><stop offset="0" stop-color="#010101"/><stop offset=".023" stop-color="#0a0b0b"/><stop offset=".156" stop-color="#2a2b2b"/><stop offset=".257" stop-color="#3a3b3b"/><stop offset=".314" stop-color="#404041"/><stop offset="1" stop-color="#010101"/></linearGradient><path fill="url(#j)" d="M462.224 53.676l-2.929 10.553h-9.639l12.567-41.117h12.2l12.75 41.117h-10.005l-3.172-10.553h-11.772zm10.432-6.955l-2.563-8.724c-.732-2.44-1.464-5.49-2.074-7.931h-.122c-.61 2.44-1.22 5.551-1.891 7.931l-2.44 8.724h9.09z"/><linearGradient id="k" gradientUnits="userSpaceOnUse" x1="497.329" y1="14.663" x2="497.329" y2="65.033"><stop offset="0" stop-color="#010101"/><stop offset=".023" stop-color="#0a0b0b"/><stop offset=".156" stop-color="#2a2b2b"/><stop offset=".257" stop-color="#3a3b3b"/><stop offset=".314" stop-color="#404041"/><stop offset="1" stop-color="#010101"/></linearGradient><path fill="url(#k)" d="M501.996 23.112v41.117h-9.334V23.112h9.334z"/><linearGradient id="l" gradientUnits="userSpaceOnUse" x1="527.066" y1="14.663" x2="527.066" y2="65.033"><stop offset="0" stop-color="#010101"/><stop offset=".023" stop-color="#0a0b0b"/><stop offset=".156" stop-color="#2a2b2b"/><stop offset=".257" stop-color="#3a3b3b"/><stop offset=".314" stop-color="#404041"/><stop offset="1" stop-color="#010101"/></linearGradient><path fill="url(#l)" d="M510.046 64.229V23.112h10.858l8.541 15.068a119.283 119.283 0 016.711 14.091h.183c-.61-5.429-.793-10.98-.793-17.142V23.112h8.54v41.117h-9.76l-8.785-15.861c-2.44-4.392-5.124-9.699-7.138-14.519l-.183.061c.244 5.429.366 11.225.366 17.936v12.383h-8.54z"/><linearGradient id="m" gradientUnits="userSpaceOnUse" x1="565.251" y1="14.663" x2="565.251" y2="65.033"><stop offset="0" stop-color="#010101"/><stop offset=".023" stop-color="#0a0b0b"/><stop offset=".156" stop-color="#2a2b2b"/><stop offset=".257" stop-color="#3a3b3b"/><stop offset=".314" stop-color="#404041"/><stop offset="1" stop-color="#010101"/></linearGradient><path fill="url(#m)" d="M576.598 46.843h-15.129v9.761h16.898v7.625h-26.232V23.112h25.378v7.625h-16.044v8.541h15.129v7.565z"/><path opacity=".95" stroke="#000" stroke-width="5" stroke-miterlimit="10" d="M0 2.5h585.333"/><g><linearGradient id="n" gradientUnits="userSpaceOnUse" x1="61.379" y1="11.345" x2="61.379" y2="64.834"><stop offset="0" stop-color="#010101"/><stop offset=".084" stop-color="#222323"/><stop offset=".189" stop-color="#393a3a"/><stop offset=".269" stop-color="#484949"/><stop offset=".314" stop-color="#4e4e4e"/><stop offset="1" stop-color="#010101"/></linearGradient><path fill="url(#n)" d="M44.568 11.774H78.19v53.433H44.568z"/><path fill="#010101" d="M43.946 11.774h.622v53.433h-.622zM78.19 11.774h.623v53.433h-.623z"/><linearGradient id="o" gradientUnits="userSpaceOnUse" x1="61.379" y1="16.92" x2="61.379" y2="60.061"><stop offset="0" stop-color="#cdcccc"/><stop offset=".196" stop-color="#fff"/><stop offset=".389" stop-color="#fbfbfb"/><stop offset=".571" stop-color="#f0f0f0"/><stop offset=".75" stop-color="#ddd"/><stop offset=".925" stop-color="#c2c2c2"/><stop offset="1" stop-color="#b4b4b4"/></linearGradient><path fill="url(#o)" d="M72.069 20.562c1.842 2.427 2.764 4.928 2.764 7.502h-5.206c-.312-1.657-.809-2.954-1.492-3.89-1.268-1.755-3.188-2.633-5.761-2.633-2.945 0-5.284 1.36-7.02 4.08-1.735 2.72-2.701 6.615-2.895 11.685 1.208-1.774 2.729-3.101 4.563-3.978 1.677-.78 3.548-1.17 5.615-1.17 3.51 0 6.571 1.122 9.184 3.363 2.613 2.242 3.919 5.586 3.919 10.032 0 3.802-1.238 7.171-3.714 10.105s-6.006 4.401-10.587 4.401c-3.919 0-7.302-1.486-10.149-4.46-2.847-2.974-4.27-7.979-4.27-15.019 0-5.206.633-9.623 1.901-13.25 2.437-6.941 6.893-10.412 13.366-10.412 4.679.002 7.94 1.216 9.782 3.644zm-3.948 32.026c1.375-1.861 2.063-4.061 2.063-6.596 0-2.145-.615-4.187-1.843-6.127-1.229-1.94-3.461-2.911-6.698-2.911-2.262 0-4.246.751-5.952 2.252-1.707 1.502-2.56 3.764-2.56 6.785 0 2.652.775 4.88 2.325 6.684 1.55 1.804 3.7 2.705 6.449 2.705 2.769.001 4.841-.93 6.216-2.792z"/><path fill="#676767" d="M43.946 65.207h34.866v1.201H43.946z"/><g><linearGradient id="p" gradientUnits="userSpaceOnUse" x1="26.544" y1="11.444" x2="26.544" y2="64.837"><stop offset="0" stop-color="#010101"/><stop offset=".084" stop-color="#222323"/><stop offset=".189" stop-color="#393a3a"/><stop offset=".269" stop-color="#484949"/><stop offset=".314" stop-color="#4e4e4e"/><stop offset="1" stop-color="#010101"/></linearGradient><path fill="url(#p)" d="M9.763 11.872h33.563v53.337H9.763z"/><path fill="#010101" d="M9.143 11.872h.621v53.337h-.621zM43.326 11.872h.621v53.337h-.621z"/><linearGradient id="q" gradientUnits="userSpaceOnUse" x1="26.544" y1="17.067" x2="26.544" y2="60.014"><stop offset="0" stop-color="#cdcccc"/><stop offset=".196" stop-color="#fff"/><stop offset=".389" stop-color="#fbfbfb"/><stop offset=".571" stop-color="#f0f0f0"/><stop offset=".75" stop-color="#ddd"/><stop offset=".925" stop-color="#c2c2c2"/><stop offset="1" stop-color="#b4b4b4"/></linearGradient><path fill="url(#q)" d="M38.164 23.753c1.869 3.445 2.803 8.165 2.803 14.16 0 5.683-.847 10.384-2.54 14.101-2.453 5.334-6.462 8-12.028 8-5.021 0-8.758-2.18-11.211-6.539-2.043-3.641-3.066-8.525-3.066-14.657 0-4.749.614-8.827 1.839-12.233 2.297-6.345 6.453-9.518 12.467-9.518 5.41 0 9.322 2.229 11.736 6.686zm-5.289 27.852c1.618-2.414 2.427-6.91 2.427-13.488 0-4.749-.585-8.657-1.755-11.722-1.169-3.065-3.441-4.598-6.813-4.598-3.101 0-5.367 1.455-6.799 4.365-1.434 2.91-2.15 7.197-2.15 12.86 0 4.263.458 7.689 1.375 10.277 1.404 3.951 3.802 5.927 7.194 5.927 2.729 0 4.903-1.206 6.521-3.621z"/><path fill="#676767" d="M9.143 65.209h34.804v1.199H9.143z"/></g><g><path fill="#676767" d="M82.077 63.614V15.092c0-1.425-1.159-2.75-2.534-3.22a2.492 2.492 0 011.626 2.33v48.522a2.49 2.49 0 01-2.483 2.483v1.201h.575c1.552 0 2.816-1.254 2.816-2.794z"/><path fill="#010101" d="M78.685 11.774v53.433a2.49 2.49 0 002.483-2.483V14.202a2.492 2.492 0 00-1.626-2.33l-.049-.017-.007-.002a3.556 3.556 0 00-.281-.078h-.52z"/></g><g><path fill="#676767" d="M6.003 63.663V15.141c0-1.425 1.159-2.75 2.534-3.22a2.493 2.493 0 00-1.625 2.33v48.521a2.49 2.49 0 002.483 2.484v1.201H8.82c-1.553 0-2.817-1.254-2.817-2.794z"/><path fill="#010101" d="M9.395 11.823v53.433a2.49 2.49 0 01-2.483-2.484V14.25c0-1.065.679-1.979 1.625-2.33l.049-.017.007-.002c.093-.03.187-.056.281-.078h.521z"/></g></g></svg>
