<?xml version="1.0" encoding="UTF-8" standalone="no"?>
<!-- Created with Inkscape (http://www.inkscape.org/) -->

<svg
   version="1.1"
   id="svg2"
   xml:space="preserve"
   width="780.44476"
   height="100.66666"
   viewBox="0 0 780.44476 100.66666"
   sodipodi:docname="7829f28578f948fd92e816439907af06.ai"
   xmlns:inkscape="http://www.inkscape.org/namespaces/inkscape"
   xmlns:sodipodi="http://sodipodi.sourceforge.net/DTD/sodipodi-0.dtd"
   xmlns="http://www.w3.org/2000/svg"
   xmlns:svg="http://www.w3.org/2000/svg"><defs
     id="defs6"><clipPath
       clipPathUnits="userSpaceOnUse"
       id="clipPath18"><path
         d="m 106.25,422.314 v -48.323 c 2.774,-0.366 6.862,-0.731 12.629,-0.731 v 0 c 9.636,0 17.52,2.044 22.703,6.351 v 0 c 4.744,4.015 8.175,10.512 8.175,19.928 v 0 c 0,8.688 -3.212,14.746 -8.321,18.542 v 0 c -4.746,3.577 -10.805,5.256 -20.148,5.256 v 0 c -5.621,0 -10.95,-0.365 -15.038,-1.023 m 15.038,-40.367 c -1.386,0 -2.92,0 -3.869,0.219 v 0 32.192 c 0.949,0.219 2.556,0.438 5.037,0.438 v 0 c 9.562,0 15.549,-5.402 15.475,-15.622 v 0 c 0,-11.675 -6.482,-17.228 -16.445,-17.227 v 0 c -0.065,0 -0.132,0 -0.198,0"
         id="path16" /></clipPath><linearGradient
       x1="0"
       y1="0"
       x2="1"
       y2="0"
       gradientUnits="userSpaceOnUse"
       gradientTransform="matrix(-2.2e-6,-50.369629,-50.369629,2.2e-6,349.14453,423.33691)"
       spreadMethod="pad"
       id="linearGradient32"><stop
         style="stop-opacity:1;stop-color:#000000"
         offset="0"
         id="stop24" /><stop
         style="stop-opacity:1;stop-color:#404041"
         offset="0.24791734"
         id="stop26" /><stop
         style="stop-opacity:1;stop-color:#404041"
         offset="0.313727"
         id="stop28" /><stop
         style="stop-opacity:1;stop-color:#000000"
         offset="1"
         id="stop30" /></linearGradient><clipPath
       clipPathUnits="userSpaceOnUse"
       id="clipPath42"><path
         d="m 165.845,414.888 -12.567,-41.116 h 9.638 l 2.929,10.552 h 11.774 l 3.172,-10.552 h 10.005 l -12.75,41.116 z m 3.782,-14.885 c 0.671,2.379 1.281,5.49 1.891,7.931 v 0 h 0.122 c 0.61,-2.441 1.343,-5.491 2.074,-7.931 v 0 l 2.563,-8.724 h -9.09 z"
         id="path40" /></clipPath><linearGradient
       x1="0"
       y1="0"
       x2="1"
       y2="0"
       gradientUnits="userSpaceOnUse"
       gradientTransform="matrix(-2.2e-6,-50.369629,-50.369629,2.2e-6,349.14453,423.33691)"
       spreadMethod="pad"
       id="linearGradient56"><stop
         style="stop-opacity:1;stop-color:#000000"
         offset="0"
         id="stop48" /><stop
         style="stop-opacity:1;stop-color:#404041"
         offset="0.24791734"
         id="stop50" /><stop
         style="stop-opacity:1;stop-color:#404041"
         offset="0.313727"
         id="stop52" /><stop
         style="stop-opacity:1;stop-color:#000000"
         offset="1"
         id="stop54" /></linearGradient><clipPath
       clipPathUnits="userSpaceOnUse"
       id="clipPath66"><path
         d="m 212.389,414.888 -4.148,-9.883 c -1.22,-2.928 -2.196,-5.307 -3.111,-7.869 v 0 h -0.123 c -1.036,2.684 -1.89,4.88 -3.171,7.869 v 0 l -4.21,9.883 h -10.615 l 12.994,-24.28 v -16.836 h 9.273 v 17.141 l 13.543,23.975 z"
         id="path64" /></clipPath><linearGradient
       x1="0"
       y1="0"
       x2="1"
       y2="0"
       gradientUnits="userSpaceOnUse"
       gradientTransform="matrix(-2.2e-6,-50.369629,-50.369629,2.2e-6,349.14453,423.33691)"
       spreadMethod="pad"
       id="linearGradient80"><stop
         style="stop-opacity:1;stop-color:#000000"
         offset="0"
         id="stop72" /><stop
         style="stop-opacity:1;stop-color:#404041"
         offset="0.24791734"
         id="stop74" /><stop
         style="stop-opacity:1;stop-color:#404041"
         offset="0.313727"
         id="stop76" /><stop
         style="stop-opacity:1;stop-color:#000000"
         offset="1"
         id="stop78" /></linearGradient><clipPath
       clipPathUnits="userSpaceOnUse"
       id="clipPath90"><path
         d="m 224.465,403.176 c 0,-5.979 4.454,-9.762 11.286,-12.141 v 0 c 4.942,-1.77 6.894,-3.232 6.894,-5.794 v 0 c 0,-2.685 -2.257,-4.454 -6.527,-4.454 v 0 c -3.966,0 -7.809,1.28 -10.31,2.562 v 0 l -1.891,-7.687 c 2.318,-1.281 6.954,-2.501 11.652,-2.501 v 0 c 11.286,0 16.593,5.857 16.593,12.75 v 0 c 0,5.796 -3.416,9.578 -10.676,12.262 v 0 c -5.307,2.013 -7.625,3.172 -7.625,5.796 v 0 c 0,2.134 1.952,3.965 5.978,3.965 v 0 c 4.026,0 6.955,-1.159 8.602,-1.953 v 0 l 2.074,7.504 c -2.44,1.098 -5.857,2.074 -10.493,2.074 v 0 c -9.699,0 -15.557,-5.368 -15.557,-12.383"
         id="path88" /></clipPath><linearGradient
       x1="0"
       y1="0"
       x2="1"
       y2="0"
       gradientUnits="userSpaceOnUse"
       gradientTransform="matrix(-2.2e-6,-50.369629,-50.369629,2.2e-6,349.14453,423.33691)"
       spreadMethod="pad"
       id="linearGradient104"><stop
         style="stop-opacity:1;stop-color:#000000"
         offset="0"
         id="stop96" /><stop
         style="stop-opacity:1;stop-color:#404041"
         offset="0.24791734"
         id="stop98" /><stop
         style="stop-opacity:1;stop-color:#404041"
         offset="0.313727"
         id="stop100" /><stop
         style="stop-opacity:1;stop-color:#000000"
         offset="1"
         id="stop102" /></linearGradient><clipPath
       clipPathUnits="userSpaceOnUse"
       id="clipPath114"><path
         d="m 270.764,373.772 h 9.334 v 41.117 h -9.334 z"
         id="path112" /></clipPath><linearGradient
       x1="0"
       y1="0"
       x2="1"
       y2="0"
       gradientUnits="userSpaceOnUse"
       gradientTransform="matrix(-2.2e-6,-50.369629,-50.369629,2.2e-6,349.14453,423.33691)"
       spreadMethod="pad"
       id="linearGradient128"><stop
         style="stop-opacity:1;stop-color:#000000"
         offset="0"
         id="stop120" /><stop
         style="stop-opacity:1;stop-color:#404041"
         offset="0.24791734"
         id="stop122" /><stop
         style="stop-opacity:1;stop-color:#404041"
         offset="0.313727"
         id="stop124" /><stop
         style="stop-opacity:1;stop-color:#000000"
         offset="1"
         id="stop126" /></linearGradient><clipPath
       clipPathUnits="userSpaceOnUse"
       id="clipPath138"><path
         d="M 313.648,414.888 V 402.87 c 0,-6.161 0.184,-11.713 0.793,-17.142 v 0 h -0.183 c -1.83,4.636 -4.27,9.761 -6.71,14.092 v 0 l -8.541,15.068 h -10.859 v -41.116 h 8.541 v 12.382 c 0,6.711 -0.122,12.507 -0.366,17.936 v 0 l 0.183,0.061 c 2.013,-4.819 4.697,-10.126 7.138,-14.518 v 0 l 8.784,-15.861 h 9.761 v 41.116 z"
         id="path136" /></clipPath><linearGradient
       x1="0"
       y1="0"
       x2="1"
       y2="0"
       gradientUnits="userSpaceOnUse"
       gradientTransform="matrix(-2.2e-6,-50.369629,-50.369629,2.2e-6,349.14453,423.33691)"
       spreadMethod="pad"
       id="linearGradient152"><stop
         style="stop-opacity:1;stop-color:#000000"
         offset="0"
         id="stop144" /><stop
         style="stop-opacity:1;stop-color:#404041"
         offset="0.24791734"
         id="stop146" /><stop
         style="stop-opacity:1;stop-color:#404041"
         offset="0.313727"
         id="stop148" /><stop
         style="stop-opacity:1;stop-color:#000000"
         offset="1"
         id="stop150" /></linearGradient><clipPath
       clipPathUnits="userSpaceOnUse"
       id="clipPath162"><path
         d="m 372.202,422.972 v -28.324 c 0,-8.686 -3.212,-12.774 -9.052,-12.774 v 0 c -5.693,0 -8.905,4.307 -8.905,12.774 v 0 28.324 h -11.169 v -27.447 c 0,-15.695 7.3,-22.557 19.709,-22.557 v 0 c 12.848,0 20.512,7.227 20.512,22.41 v 0 27.594 z"
         id="path160" /></clipPath><linearGradient
       x1="0"
       y1="0"
       x2="1"
       y2="0"
       gradientUnits="userSpaceOnUse"
       gradientTransform="matrix(-2.2e-6,-50.369629,-50.369629,2.2e-6,349.14453,423.33691)"
       spreadMethod="pad"
       id="linearGradient176"><stop
         style="stop-opacity:1;stop-color:#000000"
         offset="0"
         id="stop168" /><stop
         style="stop-opacity:1;stop-color:#404041"
         offset="0.24791734"
         id="stop170" /><stop
         style="stop-opacity:1;stop-color:#404041"
         offset="0.313727"
         id="stop172" /><stop
         style="stop-opacity:1;stop-color:#000000"
         offset="1"
         id="stop174" /></linearGradient><clipPath
       clipPathUnits="userSpaceOnUse"
       id="clipPath186"><path
         d="m 413.677,414.888 -9.333,-13.665 c -0.915,-1.465 -1.892,-2.928 -2.807,-4.514 v 0 h -0.183 v 18.179 h -9.211 v -41.116 h 9.211 v 13.42 l 3.539,4.331 10.065,-17.751 h 10.859 l -14.335,23.608 13.603,17.508 z"
         id="path184" /></clipPath><linearGradient
       x1="0"
       y1="0"
       x2="1"
       y2="0"
       gradientUnits="userSpaceOnUse"
       gradientTransform="matrix(-2.2e-6,-50.369629,-50.369629,2.2e-6,349.14453,423.33691)"
       spreadMethod="pad"
       id="linearGradient200"><stop
         style="stop-opacity:1;stop-color:#000000"
         offset="0"
         id="stop192" /><stop
         style="stop-opacity:1;stop-color:#404041"
         offset="0.24791734"
         id="stop194" /><stop
         style="stop-opacity:1;stop-color:#404041"
         offset="0.313727"
         id="stop196" /><stop
         style="stop-opacity:1;stop-color:#000000"
         offset="1"
         id="stop198" /></linearGradient><clipPath
       clipPathUnits="userSpaceOnUse"
       id="clipPath210"><path
         d="m 429.597,414.339 v -40.567 h 9.212 v 16.166 h 2.805 c 3.782,-0.062 5.552,-1.466 6.65,-6.589 v 0 c 1.22,-5.064 2.196,-8.419 2.866,-9.577 v 0 h 9.519 c -0.795,1.586 -2.075,6.953 -3.356,11.589 v 0 c -1.037,3.784 -2.623,6.528 -5.49,7.688 v 0 0.183 c 3.538,1.28 7.258,4.879 7.258,10.126 v 0 c 0,3.782 -1.342,6.65 -3.782,8.602 v 0 c -2.927,2.318 -7.198,3.233 -13.299,3.233 v 0 c -4.941,0 -9.394,-0.366 -12.383,-0.854 m 9.212,-6.345 c 0.671,0.123 1.952,0.305 4.209,0.305 v 0 c 4.27,-0.06 6.833,-1.952 6.833,-5.734 v 0 c 0,-3.6 -2.746,-5.917 -7.382,-5.917 v 0 h -3.66 z"
         id="path208" /></clipPath><linearGradient
       x1="0"
       y1="0"
       x2="1"
       y2="0"
       gradientUnits="userSpaceOnUse"
       gradientTransform="matrix(-2.2e-6,-50.369629,-50.369629,2.2e-6,349.14453,423.33691)"
       spreadMethod="pad"
       id="linearGradient224"><stop
         style="stop-opacity:1;stop-color:#000000"
         offset="0"
         id="stop216" /><stop
         style="stop-opacity:1;stop-color:#404041"
         offset="0.24791734"
         id="stop218" /><stop
         style="stop-opacity:1;stop-color:#404041"
         offset="0.313727"
         id="stop220" /><stop
         style="stop-opacity:1;stop-color:#000000"
         offset="1"
         id="stop222" /></linearGradient><clipPath
       clipPathUnits="userSpaceOnUse"
       id="clipPath234"><path
         d="m 475.895,414.888 -12.568,-41.116 h 9.639 l 2.929,10.552 h 11.773 l 3.172,-10.552 h 10.005 l -12.751,41.116 z m 3.782,-14.885 c 0.671,2.379 1.28,5.49 1.891,7.931 v 0 h 0.121 c 0.611,-2.441 1.342,-5.491 2.074,-7.931 v 0 l 2.563,-8.724 h -9.089 z"
         id="path232" /></clipPath><linearGradient
       x1="0"
       y1="0"
       x2="1"
       y2="0"
       gradientUnits="userSpaceOnUse"
       gradientTransform="matrix(-2.2e-6,-50.369629,-50.369629,2.2e-6,349.14453,423.33691)"
       spreadMethod="pad"
       id="linearGradient248"><stop
         style="stop-opacity:1;stop-color:#000000"
         offset="0"
         id="stop240" /><stop
         style="stop-opacity:1;stop-color:#404041"
         offset="0.24791734"
         id="stop242" /><stop
         style="stop-opacity:1;stop-color:#404041"
         offset="0.313727"
         id="stop244" /><stop
         style="stop-opacity:1;stop-color:#000000"
         offset="1"
         id="stop246" /></linearGradient><clipPath
       clipPathUnits="userSpaceOnUse"
       id="clipPath258"><path
         d="m 506.332,373.772 h 9.334 v 41.117 h -9.334 z"
         id="path256" /></clipPath><linearGradient
       x1="0"
       y1="0"
       x2="1"
       y2="0"
       gradientUnits="userSpaceOnUse"
       gradientTransform="matrix(-2.2e-6,-50.369629,-50.369629,2.2e-6,349.14453,423.33691)"
       spreadMethod="pad"
       id="linearGradient272"><stop
         style="stop-opacity:1;stop-color:#000000"
         offset="0"
         id="stop264" /><stop
         style="stop-opacity:1;stop-color:#404041"
         offset="0.24791734"
         id="stop266" /><stop
         style="stop-opacity:1;stop-color:#404041"
         offset="0.313727"
         id="stop268" /><stop
         style="stop-opacity:1;stop-color:#000000"
         offset="1"
         id="stop270" /></linearGradient><clipPath
       clipPathUnits="userSpaceOnUse"
       id="clipPath282"><path
         d="M 549.217,414.888 V 402.87 c 0,-6.161 0.183,-11.713 0.793,-17.142 v 0 h -0.183 c -1.83,4.636 -4.27,9.761 -6.711,14.092 v 0 l -8.541,15.068 h -10.858 v -41.116 h 8.541 v 12.382 c 0,6.711 -0.122,12.507 -0.366,17.936 v 0 l 0.183,0.061 c 2.013,-4.819 4.697,-10.126 7.137,-14.518 v 0 l 8.785,-15.861 h 9.76 v 41.116 z"
         id="path280" /></clipPath><linearGradient
       x1="0"
       y1="0"
       x2="1"
       y2="0"
       gradientUnits="userSpaceOnUse"
       gradientTransform="matrix(-2.2e-6,-50.369629,-50.369629,2.2e-6,349.14453,423.33691)"
       spreadMethod="pad"
       id="linearGradient296"><stop
         style="stop-opacity:1;stop-color:#000000"
         offset="0"
         id="stop288" /><stop
         style="stop-opacity:1;stop-color:#404041"
         offset="0.24791734"
         id="stop290" /><stop
         style="stop-opacity:1;stop-color:#404041"
         offset="0.313727"
         id="stop292" /><stop
         style="stop-opacity:1;stop-color:#000000"
         offset="1"
         id="stop294" /></linearGradient><clipPath
       clipPathUnits="userSpaceOnUse"
       id="clipPath306"><path
         d="m 565.806,414.888 v -41.116 h 26.232 v 7.625 H 575.14 v 9.76 h 15.129 v 7.565 H 575.14 v 8.541 h 16.044 v 7.625 z"
         id="path304" /></clipPath><linearGradient
       x1="0"
       y1="0"
       x2="1"
       y2="0"
       gradientUnits="userSpaceOnUse"
       gradientTransform="matrix(-2.2e-6,-50.369629,-50.369629,2.2e-6,349.14453,423.33691)"
       spreadMethod="pad"
       id="linearGradient320"><stop
         style="stop-opacity:1;stop-color:#000000"
         offset="0"
         id="stop312" /><stop
         style="stop-opacity:1;stop-color:#404041"
         offset="0.24791734"
         id="stop314" /><stop
         style="stop-opacity:1;stop-color:#404041"
         offset="0.313727"
         id="stop316" /><stop
         style="stop-opacity:1;stop-color:#000000"
         offset="1"
         id="stop318" /></linearGradient><clipPath
       clipPathUnits="userSpaceOnUse"
       id="clipPath330"><path
         d="M 0,792 H 612 V 0 H 0 Z"
         id="path328" /></clipPath><clipPath
       clipPathUnits="userSpaceOnUse"
       id="clipPath338"><path
         d="M 13.6704,438 H 599.004 v -5 H 13.6704 Z"
         id="path336" /></clipPath><clipPath
       clipPathUnits="userSpaceOnUse"
       id="clipPath354"><path
         d="m 23.433,372.791 h 33.563 v 53.337 H 23.433 Z"
         id="path352" /></clipPath><linearGradient
       x1="0"
       y1="0"
       x2="1"
       y2="0"
       gradientUnits="userSpaceOnUse"
       gradientTransform="matrix(-2.3e-6,-53.393406,-53.393406,2.3e-6,40.214844,426.55615)"
       spreadMethod="pad"
       id="linearGradient368"><stop
         style="stop-opacity:1;stop-color:#000000"
         offset="0"
         id="stop360" /><stop
         style="stop-opacity:1;stop-color:#4e4e4e"
         offset="0.24791734"
         id="stop362" /><stop
         style="stop-opacity:1;stop-color:#4e4e4e"
         offset="0.313727"
         id="stop364" /><stop
         style="stop-opacity:1;stop-color:#000000"
         offset="1"
         id="stop366" /></linearGradient><clipPath
       clipPathUnits="userSpaceOnUse"
       id="clipPath378"><path
         d="M 0,792 H 612 V 0 H 0 Z"
         id="path376" /></clipPath><clipPath
       clipPathUnits="userSpaceOnUse"
       id="clipPath390"><path
         d="m 27.631,411.415 c -1.225,-3.406 -1.839,-7.484 -1.839,-12.233 v 0 c 0,-6.131 1.023,-11.016 3.066,-14.657 v 0 c 2.452,-4.359 6.19,-6.539 11.211,-6.539 v 0 c 5.566,0 9.576,2.666 12.028,8.001 v 0 c 1.693,3.716 2.54,8.417 2.54,14.101 v 0 c 0,5.994 -0.934,10.714 -2.802,14.159 v 0 c -2.414,4.456 -6.327,6.686 -11.737,6.686 v 0 c -6.014,0 -10.169,-3.173 -12.467,-9.518 m 5.199,-22.714 c -0.915,2.588 -1.374,6.014 -1.374,10.277 v 0 c 0,5.664 0.716,9.95 2.15,12.86 v 0 c 1.433,2.91 3.699,4.365 6.8,4.365 v 0 c 3.371,0 5.643,-1.532 6.813,-4.598 v 0 c 1.17,-3.065 1.754,-6.973 1.754,-11.722 v 0 c 0,-6.578 -0.809,-11.074 -2.427,-13.489 v 0 c -1.618,-2.414 -3.792,-3.619 -6.521,-3.619 v 0 c -3.392,0 -5.791,1.975 -7.195,5.926"
         id="path388" /></clipPath><linearGradient
       x1="0"
       y1="0"
       x2="1"
       y2="0"
       gradientUnits="userSpaceOnUse"
       gradientTransform="matrix(-1.9e-6,-42.947266,-42.947266,1.9e-6,40.214356,420.93311)"
       spreadMethod="pad"
       id="linearGradient404"><stop
         style="stop-opacity:1;stop-color:#cdcccc"
         offset="0"
         id="stop396" /><stop
         style="stop-opacity:1;stop-color:#ffffff"
         offset="0.196319"
         id="stop398" /><stop
         style="stop-opacity:1;stop-color:#ffffff"
         offset="0.61554825"
         id="stop400" /><stop
         style="stop-opacity:1;stop-color:#b3b3b4"
         offset="1"
         id="stop402" /></linearGradient><clipPath
       clipPathUnits="userSpaceOnUse"
       id="clipPath414"><path
         d="M 0,792 H 612 V 0 H 0 Z"
         id="path412" /></clipPath><clipPath
       clipPathUnits="userSpaceOnUse"
       id="clipPath440"><path
         d="M 58.237,372.791 H 91.8 v 53.337 H 58.237 Z"
         id="path438" /></clipPath><linearGradient
       x1="0"
       y1="0"
       x2="1"
       y2="0"
       gradientUnits="userSpaceOnUse"
       gradientTransform="matrix(-2.3e-6,-53.393406,-53.393406,2.3e-6,75.018555,426.55615)"
       spreadMethod="pad"
       id="linearGradient454"><stop
         style="stop-opacity:1;stop-color:#000000"
         offset="0"
         id="stop446" /><stop
         style="stop-opacity:1;stop-color:#4e4e4e"
         offset="0.24791734"
         id="stop448" /><stop
         style="stop-opacity:1;stop-color:#4e4e4e"
         offset="0.313727"
         id="stop450" /><stop
         style="stop-opacity:1;stop-color:#000000"
         offset="1"
         id="stop452" /></linearGradient><clipPath
       clipPathUnits="userSpaceOnUse"
       id="clipPath464"><path
         d="M 0,792 H 612 V 0 H 0 Z"
         id="path462" /></clipPath><clipPath
       clipPathUnits="userSpaceOnUse"
       id="clipPath476"><path
         d="m 65.497,417.664 c -2.255,-2.239 -3.384,-4.916 -3.384,-8.029 v 0 c 0,-2.492 0.77,-4.516 2.307,-6.072 v 0 c 0.817,-0.838 1.956,-1.569 3.416,-2.191 v 0 c -2.374,-0.954 -4.165,-2.331 -5.372,-4.131 v 0 c -1.206,-1.801 -1.809,-3.937 -1.809,-6.409 v 0 c 0,-4.204 1.405,-7.411 4.219,-9.62 v 0 c 2.811,-2.209 6.251,-3.314 10.32,-3.314 v 0 c 4.515,0 8.009,1.28 10.481,3.841 v 0 c 2.472,2.558 3.708,5.678 3.708,9.356 v 0 c 0,3.114 -0.929,5.645 -2.784,7.591 v 0 c -0.997,1.032 -2.364,1.947 -4.103,2.745 v 0 c 1.556,0.874 2.703,1.77 3.443,2.685 v 0 c 1.322,1.617 1.985,3.728 1.985,6.336 v 0 c 0,2.823 -1.139,5.289 -3.413,7.401 v 0 c -2.274,2.112 -5.415,3.169 -9.419,3.169 v 0 c -4.141,0 -7.34,-1.121 -9.595,-3.358 m 4.321,-12.61 c -1.458,1.113 -2.186,2.653 -2.186,4.625 v 0 c 0,1.753 0.563,3.286 1.69,4.594 v 0 c 1.126,1.306 2.953,1.961 5.478,1.961 v 0 c 2.544,0 4.438,-0.655 5.682,-1.961 v 0 c 1.243,-1.308 1.864,-2.742 1.864,-4.302 v 0 c 0,-1.795 -0.65,-3.341 -1.952,-4.639 v 0 c -1.301,-1.298 -3.108,-1.946 -5.419,-1.946 v 0 c -1.981,0 -3.7,0.557 -5.157,1.668 m -1.237,-19.987 c -1.45,1.586 -2.175,3.468 -2.175,5.649 v 0 c 0,2.53 0.793,4.511 2.379,5.94 v 0 c 1.587,1.431 3.635,2.147 6.145,2.147 v 0 c 2.59,0 4.711,-0.701 6.365,-2.102 v 0 c 1.655,-1.401 2.482,-3.455 2.482,-6.161 v 0 c 0,-2.609 -0.803,-4.569 -2.408,-5.882 v 0 c -1.607,-1.315 -3.626,-1.972 -6.059,-1.972 v 0 c -3.036,0 -5.279,0.793 -6.729,2.381"
         id="path474" /></clipPath><linearGradient
       x1="0"
       y1="0"
       x2="1"
       y2="0"
       gradientUnits="userSpaceOnUse"
       gradientTransform="matrix(-1.9e-6,-43.123535,-43.123535,1.9e-6,75.018555,421.02148)"
       spreadMethod="pad"
       id="linearGradient490"><stop
         style="stop-opacity:1;stop-color:#cdcccc"
         offset="0"
         id="stop482" /><stop
         style="stop-opacity:1;stop-color:#ffffff"
         offset="0.196319"
         id="stop484" /><stop
         style="stop-opacity:1;stop-color:#ffffff"
         offset="0.61554825"
         id="stop486" /><stop
         style="stop-opacity:1;stop-color:#b3b3b4"
         offset="1"
         id="stop488" /></linearGradient><clipPath
       clipPathUnits="userSpaceOnUse"
       id="clipPath500"><path
         d="M 0,792 H 612 V 0 H 0 Z"
         id="path498" /></clipPath></defs><sodipodi:namedview
     id="namedview4"
     pagecolor="#ffffff"
     bordercolor="#666666"
     borderopacity="1.0"
     inkscape:pageshadow="2"
     inkscape:pageopacity="0.0"
     inkscape:pagecheckerboard="0" /><g
     id="g8"
     inkscape:groupmode="layer"
     inkscape:label="7829f28578f948fd92e816439907af06"
     transform="matrix(1.3333333,0,0,-1.3333333,-18.2272,583.99999)"><path
       d="M 599.004,362.5 H 13.671 V 438 h 585.333 z"
       style="fill:#f6fafc;fill-opacity:1;fill-rule:nonzero;stroke:none"
       id="path10" /><g
       id="g12"><g
         id="g14"
         clip-path="url(#clipPath18)"><g
           id="g20"><g
             id="g22"><path
               d="m 106.25,422.314 v -48.323 c 2.774,-0.366 6.862,-0.731 12.629,-0.731 v 0 c 9.636,0 17.52,2.044 22.703,6.351 v 0 c 4.744,4.015 8.175,10.512 8.175,19.928 v 0 c 0,8.688 -3.212,14.746 -8.321,18.542 v 0 c -4.746,3.577 -10.805,5.256 -20.148,5.256 v 0 c -5.621,0 -10.95,-0.365 -15.038,-1.023 m 15.038,-40.367 c -1.386,0 -2.92,0 -3.869,0.219 v 0 32.192 c 0.949,0.219 2.556,0.438 5.037,0.438 v 0 c 9.562,0 15.549,-5.402 15.475,-15.622 v 0 c 0,-11.675 -6.482,-17.228 -16.445,-17.227 v 0 c -0.065,0 -0.132,0 -0.198,0"
               style="fill:url(#linearGradient32);stroke:none"
               id="path34" /></g></g></g></g><g
       id="g36"><g
         id="g38"
         clip-path="url(#clipPath42)"><g
           id="g44"><g
             id="g46"><path
               d="m 165.845,414.888 -12.567,-41.116 h 9.638 l 2.929,10.552 h 11.774 l 3.172,-10.552 h 10.005 l -12.75,41.116 z m 3.782,-14.885 c 0.671,2.379 1.281,5.49 1.891,7.931 v 0 h 0.122 c 0.61,-2.441 1.343,-5.491 2.074,-7.931 v 0 l 2.563,-8.724 h -9.09 z"
               style="fill:url(#linearGradient56);stroke:none"
               id="path58" /></g></g></g></g><g
       id="g60"><g
         id="g62"
         clip-path="url(#clipPath66)"><g
           id="g68"><g
             id="g70"><path
               d="m 212.389,414.888 -4.148,-9.883 c -1.22,-2.928 -2.196,-5.307 -3.111,-7.869 v 0 h -0.123 c -1.036,2.684 -1.89,4.88 -3.171,7.869 v 0 l -4.21,9.883 h -10.615 l 12.994,-24.28 v -16.836 h 9.273 v 17.141 l 13.543,23.975 z"
               style="fill:url(#linearGradient80);stroke:none"
               id="path82" /></g></g></g></g><g
       id="g84"><g
         id="g86"
         clip-path="url(#clipPath90)"><g
           id="g92"><g
             id="g94"><path
               d="m 224.465,403.176 c 0,-5.979 4.454,-9.762 11.286,-12.141 v 0 c 4.942,-1.77 6.894,-3.232 6.894,-5.794 v 0 c 0,-2.685 -2.257,-4.454 -6.527,-4.454 v 0 c -3.966,0 -7.809,1.28 -10.31,2.562 v 0 l -1.891,-7.687 c 2.318,-1.281 6.954,-2.501 11.652,-2.501 v 0 c 11.286,0 16.593,5.857 16.593,12.75 v 0 c 0,5.796 -3.416,9.578 -10.676,12.262 v 0 c -5.307,2.013 -7.625,3.172 -7.625,5.796 v 0 c 0,2.134 1.952,3.965 5.978,3.965 v 0 c 4.026,0 6.955,-1.159 8.602,-1.953 v 0 l 2.074,7.504 c -2.44,1.098 -5.857,2.074 -10.493,2.074 v 0 c -9.699,0 -15.557,-5.368 -15.557,-12.383"
               style="fill:url(#linearGradient104);stroke:none"
               id="path106" /></g></g></g></g><g
       id="g108"><g
         id="g110"
         clip-path="url(#clipPath114)"><g
           id="g116"><g
             id="g118"><path
               d="m 270.764,373.772 h 9.334 v 41.117 h -9.334 z"
               style="fill:url(#linearGradient128);stroke:none"
               id="path130" /></g></g></g></g><g
       id="g132"><g
         id="g134"
         clip-path="url(#clipPath138)"><g
           id="g140"><g
             id="g142"><path
               d="M 313.648,414.888 V 402.87 c 0,-6.161 0.184,-11.713 0.793,-17.142 v 0 h -0.183 c -1.83,4.636 -4.27,9.761 -6.71,14.092 v 0 l -8.541,15.068 h -10.859 v -41.116 h 8.541 v 12.382 c 0,6.711 -0.122,12.507 -0.366,17.936 v 0 l 0.183,0.061 c 2.013,-4.819 4.697,-10.126 7.138,-14.518 v 0 l 8.784,-15.861 h 9.761 v 41.116 z"
               style="fill:url(#linearGradient152);stroke:none"
               id="path154" /></g></g></g></g><g
       id="g156"><g
         id="g158"
         clip-path="url(#clipPath162)"><g
           id="g164"><g
             id="g166"><path
               d="m 372.202,422.972 v -28.324 c 0,-8.686 -3.212,-12.774 -9.052,-12.774 v 0 c -5.693,0 -8.905,4.307 -8.905,12.774 v 0 28.324 h -11.169 v -27.447 c 0,-15.695 7.3,-22.557 19.709,-22.557 v 0 c 12.848,0 20.512,7.227 20.512,22.41 v 0 27.594 z"
               style="fill:url(#linearGradient176);stroke:none"
               id="path178" /></g></g></g></g><g
       id="g180"><g
         id="g182"
         clip-path="url(#clipPath186)"><g
           id="g188"><g
             id="g190"><path
               d="m 413.677,414.888 -9.333,-13.665 c -0.915,-1.465 -1.892,-2.928 -2.807,-4.514 v 0 h -0.183 v 18.179 h -9.211 v -41.116 h 9.211 v 13.42 l 3.539,4.331 10.065,-17.751 h 10.859 l -14.335,23.608 13.603,17.508 z"
               style="fill:url(#linearGradient200);stroke:none"
               id="path202" /></g></g></g></g><g
       id="g204"><g
         id="g206"
         clip-path="url(#clipPath210)"><g
           id="g212"><g
             id="g214"><path
               d="m 429.597,414.339 v -40.567 h 9.212 v 16.166 h 2.805 c 3.782,-0.062 5.552,-1.466 6.65,-6.589 v 0 c 1.22,-5.064 2.196,-8.419 2.866,-9.577 v 0 h 9.519 c -0.795,1.586 -2.075,6.953 -3.356,11.589 v 0 c -1.037,3.784 -2.623,6.528 -5.49,7.688 v 0 0.183 c 3.538,1.28 7.258,4.879 7.258,10.126 v 0 c 0,3.782 -1.342,6.65 -3.782,8.602 v 0 c -2.927,2.318 -7.198,3.233 -13.299,3.233 v 0 c -4.941,0 -9.394,-0.366 -12.383,-0.854 m 9.212,-6.345 c 0.671,0.123 1.952,0.305 4.209,0.305 v 0 c 4.27,-0.06 6.833,-1.952 6.833,-5.734 v 0 c 0,-3.6 -2.746,-5.917 -7.382,-5.917 v 0 h -3.66 z"
               style="fill:url(#linearGradient224);stroke:none"
               id="path226" /></g></g></g></g><g
       id="g228"><g
         id="g230"
         clip-path="url(#clipPath234)"><g
           id="g236"><g
             id="g238"><path
               d="m 475.895,414.888 -12.568,-41.116 h 9.639 l 2.929,10.552 h 11.773 l 3.172,-10.552 h 10.005 l -12.751,41.116 z m 3.782,-14.885 c 0.671,2.379 1.28,5.49 1.891,7.931 v 0 h 0.121 c 0.611,-2.441 1.342,-5.491 2.074,-7.931 v 0 l 2.563,-8.724 h -9.089 z"
               style="fill:url(#linearGradient248);stroke:none"
               id="path250" /></g></g></g></g><g
       id="g252"><g
         id="g254"
         clip-path="url(#clipPath258)"><g
           id="g260"><g
             id="g262"><path
               d="m 506.332,373.772 h 9.334 v 41.117 h -9.334 z"
               style="fill:url(#linearGradient272);stroke:none"
               id="path274" /></g></g></g></g><g
       id="g276"><g
         id="g278"
         clip-path="url(#clipPath282)"><g
           id="g284"><g
             id="g286"><path
               d="M 549.217,414.888 V 402.87 c 0,-6.161 0.183,-11.713 0.793,-17.142 v 0 h -0.183 c -1.83,4.636 -4.27,9.761 -6.711,14.092 v 0 l -8.541,15.068 h -10.858 v -41.116 h 8.541 v 12.382 c 0,6.711 -0.122,12.507 -0.366,17.936 v 0 l 0.183,0.061 c 2.013,-4.819 4.697,-10.126 7.137,-14.518 v 0 l 8.785,-15.861 h 9.76 v 41.116 z"
               style="fill:url(#linearGradient296);stroke:none"
               id="path298" /></g></g></g></g><g
       id="g300"><g
         id="g302"
         clip-path="url(#clipPath306)"><g
           id="g308"><g
             id="g310"><path
               d="m 565.806,414.888 v -41.116 h 26.232 v 7.625 H 575.14 v 9.76 h 15.129 v 7.565 H 575.14 v 8.541 h 16.044 v 7.625 z"
               style="fill:url(#linearGradient320);stroke:none"
               id="path322" /></g></g></g></g><g
       id="g324"><g
         id="g326"
         clip-path="url(#clipPath330)"><g
           id="g332"><g
             id="g334" /><g
             id="g346"><g
               clip-path="url(#clipPath338)"
               opacity="0.949997"
               id="g344"><g
                 transform="translate(13.6704,435.5)"
                 id="g342"><path
                   d="M 0,0 H 585.333"
                   style="fill:#231f20;fill-opacity:1;fill-rule:nonzero;stroke:#231f20;stroke-width:5;stroke-linecap:butt;stroke-linejoin:miter;stroke-miterlimit:10;stroke-dasharray:none;stroke-opacity:1"
                   id="path340" /></g></g></g></g></g></g><g
       id="g348"><g
         id="g350"
         clip-path="url(#clipPath354)"><g
           id="g356"><g
             id="g358"><path
               d="m 23.433,372.791 h 33.563 v 53.337 H 23.433 Z"
               style="fill:url(#linearGradient368);stroke:none"
               id="path370" /></g></g></g></g><g
       id="g372"><g
         id="g374"
         clip-path="url(#clipPath378)"><path
           d="m 22.813,372.791 h 0.621 v 53.337 h -0.621 z"
           style="fill:#000000;fill-opacity:1;fill-rule:nonzero;stroke:none"
           id="path380" /><path
           d="m 56.996,372.791 h 0.621 v 53.337 h -0.621 z"
           style="fill:#000000;fill-opacity:1;fill-rule:nonzero;stroke:none"
           id="path382" /></g></g><g
       id="g384"><g
         id="g386"
         clip-path="url(#clipPath390)"><g
           id="g392"><g
             id="g394"><path
               d="m 27.631,411.415 c -1.225,-3.406 -1.839,-7.484 -1.839,-12.233 v 0 c 0,-6.131 1.023,-11.016 3.066,-14.657 v 0 c 2.452,-4.359 6.19,-6.539 11.211,-6.539 v 0 c 5.566,0 9.576,2.666 12.028,8.001 v 0 c 1.693,3.716 2.54,8.417 2.54,14.101 v 0 c 0,5.994 -0.934,10.714 -2.802,14.159 v 0 c -2.414,4.456 -6.327,6.686 -11.737,6.686 v 0 c -6.014,0 -10.169,-3.173 -12.467,-9.518 m 5.199,-22.714 c -0.915,2.588 -1.374,6.014 -1.374,10.277 v 0 c 0,5.664 0.716,9.95 2.15,12.86 v 0 c 1.433,2.91 3.699,4.365 6.8,4.365 v 0 c 3.371,0 5.643,-1.532 6.813,-4.598 v 0 c 1.17,-3.065 1.754,-6.973 1.754,-11.722 v 0 c 0,-6.578 -0.809,-11.074 -2.427,-13.489 v 0 c -1.618,-2.414 -3.792,-3.619 -6.521,-3.619 v 0 c -3.392,0 -5.791,1.975 -7.195,5.926"
               style="fill:url(#linearGradient404);stroke:none"
               id="path406" /></g></g></g></g><g
       id="g408"><g
         id="g410"
         clip-path="url(#clipPath414)"><path
           d="m 22.813,371.592 h 34.804 v 1.199 H 22.813 Z"
           style="fill:#676767;fill-opacity:1;fill-rule:nonzero;stroke:none"
           id="path416" /><g
           id="g418"
           transform="translate(95.7471,374.3857)"><path
             d="m 0,0 v 48.522 c 0,1.425 -1.159,2.75 -2.534,3.22 0.947,-0.351 1.626,-1.264 1.626,-2.329 V 0.891 c 0,-1.367 -1.118,-2.484 -2.484,-2.484 v -1.201 h 0.575 C -1.264,-2.794 0,-1.54 0,0"
             style="fill:#676767;fill-opacity:1;fill-rule:nonzero;stroke:none"
             id="path420" /></g><g
           id="g422"
           transform="translate(92.3555,426.2256)"><path
             d="m 0,0 v -53.433 c 1.366,0 2.483,1.118 2.483,2.484 v 48.522 c 0,1.065 -0.679,1.978 -1.626,2.329 C 0.841,-0.092 0.825,-0.086 0.809,-0.081 0.806,-0.08 0.804,-0.079 0.801,-0.078 0.708,-0.048 0.615,-0.022 0.521,0 Z"
             style="fill:#000000;fill-opacity:1;fill-rule:nonzero;stroke:none"
             id="path424" /></g><g
           id="g426"
           transform="translate(19.6738,374.3369)"><path
             d="m 0,0 v 48.522 c 0,1.425 1.159,2.75 2.534,3.22 C 1.587,51.391 0.908,50.478 0.908,49.413 V 0.892 c 0,-1.368 1.117,-2.485 2.484,-2.485 V -2.794 H 2.817 C 1.264,-2.794 0,-1.54 0,0"
             style="fill:#676767;fill-opacity:1;fill-rule:nonzero;stroke:none"
             id="path428" /></g><g
           id="g430"
           transform="translate(23.0654,426.1768)"><path
             d="m 0,0 v -53.433 c -1.366,0 -2.483,1.118 -2.483,2.485 v 48.521 c 0,1.065 0.679,1.978 1.625,2.329 0.017,0.006 0.033,0.012 0.049,0.017 0.002,0.001 0.005,0.002 0.007,0.003 0.094,0.03 0.187,0.056 0.281,0.078 z"
             style="fill:#000000;fill-opacity:1;fill-rule:nonzero;stroke:none"
             id="path432" /></g></g></g><g
       id="g434"><g
         id="g436"
         clip-path="url(#clipPath440)"><g
           id="g442"><g
             id="g444"><path
               d="M 58.237,372.791 H 91.8 v 53.337 H 58.237 Z"
               style="fill:url(#linearGradient454);stroke:none"
               id="path456" /></g></g></g></g><g
       id="g458"><g
         id="g460"
         clip-path="url(#clipPath464)"><path
           d="m 57.617,372.791 h 0.621 v 53.337 h -0.621 z"
           style="fill:#000000;fill-opacity:1;fill-rule:nonzero;stroke:none"
           id="path466" /><path
           d="m 91.8,372.791 h 0.621 v 53.337 H 91.8 Z"
           style="fill:#000000;fill-opacity:1;fill-rule:nonzero;stroke:none"
           id="path468" /></g></g><g
       id="g470"><g
         id="g472"
         clip-path="url(#clipPath476)"><g
           id="g478"><g
             id="g480"><path
               d="m 65.497,417.664 c -2.255,-2.239 -3.384,-4.916 -3.384,-8.029 v 0 c 0,-2.492 0.77,-4.516 2.307,-6.072 v 0 c 0.817,-0.838 1.956,-1.569 3.416,-2.191 v 0 c -2.374,-0.954 -4.165,-2.331 -5.372,-4.131 v 0 c -1.206,-1.801 -1.809,-3.937 -1.809,-6.409 v 0 c 0,-4.204 1.405,-7.411 4.219,-9.62 v 0 c 2.811,-2.209 6.251,-3.314 10.32,-3.314 v 0 c 4.515,0 8.009,1.28 10.481,3.841 v 0 c 2.472,2.558 3.708,5.678 3.708,9.356 v 0 c 0,3.114 -0.929,5.645 -2.784,7.591 v 0 c -0.997,1.032 -2.364,1.947 -4.103,2.745 v 0 c 1.556,0.874 2.703,1.77 3.443,2.685 v 0 c 1.322,1.617 1.985,3.728 1.985,6.336 v 0 c 0,2.823 -1.139,5.289 -3.413,7.401 v 0 c -2.274,2.112 -5.415,3.169 -9.419,3.169 v 0 c -4.141,0 -7.34,-1.121 -9.595,-3.358 m 4.321,-12.61 c -1.458,1.113 -2.186,2.653 -2.186,4.625 v 0 c 0,1.753 0.563,3.286 1.69,4.594 v 0 c 1.126,1.306 2.953,1.961 5.478,1.961 v 0 c 2.544,0 4.438,-0.655 5.682,-1.961 v 0 c 1.243,-1.308 1.864,-2.742 1.864,-4.302 v 0 c 0,-1.795 -0.65,-3.341 -1.952,-4.639 v 0 c -1.301,-1.298 -3.108,-1.946 -5.419,-1.946 v 0 c -1.981,0 -3.7,0.557 -5.157,1.668 m -1.237,-19.987 c -1.45,1.586 -2.175,3.468 -2.175,5.649 v 0 c 0,2.53 0.793,4.511 2.379,5.94 v 0 c 1.587,1.431 3.635,2.147 6.145,2.147 v 0 c 2.59,0 4.711,-0.701 6.365,-2.102 v 0 c 1.655,-1.401 2.482,-3.455 2.482,-6.161 v 0 c 0,-2.609 -0.803,-4.569 -2.408,-5.882 v 0 c -1.607,-1.315 -3.626,-1.972 -6.059,-1.972 v 0 c -3.036,0 -5.279,0.793 -6.729,2.381"
               style="fill:url(#linearGradient490);stroke:none"
               id="path492" /></g></g></g></g><g
       id="g494"><g
         id="g496"
         clip-path="url(#clipPath500)"><path
           d="m 57.617,371.592 h 34.804 v 1.199 H 57.617 Z"
           style="fill:#676767;fill-opacity:1;fill-rule:nonzero;stroke:none"
           id="path502" /></g></g></g></svg>
